<svg width="28" height="26" viewBox="0 0 28 26" fill="none" xmlns="http://www.w3.org/2000/svg">
<path d="M0 21.6667C0 22.6254 0.782031 23.4 1.75 23.4H4.74141C5.41406 24.9329 6.95625 26 8.75 26C10.5437 26 12.0859 24.9329 12.7586 23.4H26.25C27.218 23.4 28 22.6254 28 21.6667C28 20.7079 27.218 19.9333 26.25 19.9333H12.7586C12.0859 18.4004 10.5437 17.3333 8.75 17.3333C6.95625 17.3333 5.41406 18.4004 4.74141 19.9333H1.75C0.782031 19.9333 0 20.7079 0 21.6667ZM7 21.6667C7 21.207 7.18437 20.7661 7.51256 20.441C7.84075 20.116 8.28587 19.9333 8.75 19.9333C9.21413 19.9333 9.65925 20.116 9.98744 20.441C10.3156 20.7661 10.5 21.207 10.5 21.6667C10.5 22.1264 10.3156 22.5673 9.98744 22.8923C9.65925 23.2174 9.21413 23.4 8.75 23.4C8.28587 23.4 7.84075 23.2174 7.51256 22.8923C7.18437 22.5673 7 22.1264 7 21.6667ZM17.5 13C17.5 12.5403 17.6844 12.0994 18.0126 11.7743C18.3408 11.4493 18.7859 11.2667 19.25 11.2667C19.7141 11.2667 20.1592 11.4493 20.4874 11.7743C20.8156 12.0994 21 12.5403 21 13C21 13.4597 20.8156 13.9006 20.4874 14.2257C20.1592 14.5507 19.7141 14.7333 19.25 14.7333C18.7859 14.7333 18.3408 14.5507 18.0126 14.2257C17.6844 13.9006 17.5 13.4597 17.5 13ZM19.25 8.66667C17.4562 8.66667 15.9141 9.73375 15.2414 11.2667H1.75C0.782031 11.2667 0 12.0413 0 13C0 13.9587 0.782031 14.7333 1.75 14.7333H15.2414C15.9141 16.2663 17.4562 17.3333 19.25 17.3333C21.0438 17.3333 22.5859 16.2663 23.2586 14.7333H26.25C27.218 14.7333 28 13.9587 28 13C28 12.0413 27.218 11.2667 26.25 11.2667H23.2586C22.5859 9.73375 21.0438 8.66667 19.25 8.66667ZM10.5 6.06667C10.0359 6.06667 9.59075 5.88405 9.26256 5.55899C8.93437 5.23392 8.75 4.79304 8.75 4.33333C8.75 3.87362 8.93437 3.43274 9.26256 3.10768C9.59075 2.78262 10.0359 2.6 10.5 2.6C10.9641 2.6 11.4092 2.78262 11.7374 3.10768C12.0656 3.43274 12.25 3.87362 12.25 4.33333C12.25 4.79304 12.0656 5.23392 11.7374 5.55899C11.4092 5.88405 10.9641 6.06667 10.5 6.06667ZM14.5086 2.6C13.8359 1.06708 12.2937 0 10.5 0C8.70625 0 7.16406 1.06708 6.49141 2.6H1.75C0.782031 2.6 0 3.37458 0 4.33333C0 5.29208 0.782031 6.06667 1.75 6.06667H6.49141C7.16406 7.59958 8.70625 8.66667 10.5 8.66667C12.2937 8.66667 13.8359 7.59958 14.5086 6.06667H26.25C27.218 6.06667 28 5.29208 28 4.33333C28 3.37458 27.218 2.6 26.25 2.6H14.5086Z" fill="#373737"/>
</svg>
