<svg width="19" height="16" viewBox="0 0 19 16" fill="none" xmlns="http://www.w3.org/2000/svg">
<g clip-path="url(#clip0_7_2039)">
<path d="M7.475 1.33438L6.29688 1.775C6.20312 1.80937 6.14062 1.9 6.14062 2C6.14062 2.1 6.20312 2.19062 6.29688 2.225L7.475 2.66563L7.91563 3.84375C7.95 3.9375 8.04062 4 8.14062 4C8.24063 4 8.33125 3.9375 8.36563 3.84375L8.80625 2.66563L9.98438 2.225C10.0781 2.19062 10.1406 2.1 10.1406 2C10.1406 1.9 10.0781 1.80937 9.98438 1.775L8.80625 1.33438L8.36563 0.15625C8.33125 0.0625 8.24063 0 8.14062 0C8.04062 0 7.95 0.0625 7.91563 0.15625L7.475 1.33438ZM1.58125 12.3562C0.996875 12.9406 0.996875 13.8906 1.58125 14.4781L2.6625 15.5594C3.24687 16.1437 4.19688 16.1437 4.78438 15.5594L16.7 3.64062C17.2844 3.05625 17.2844 2.10625 16.7 1.51875L15.6187 0.440625C15.0344 -0.14375 14.0844 -0.14375 13.4969 0.440625L1.58125 12.3562ZM15.2844 2.58125L12.0031 5.8625L11.275 5.13438L14.5562 1.85312L15.2844 2.58125ZM0.375 3.6625C0.234375 3.71562 0.140625 3.85 0.140625 4C0.140625 4.15 0.234375 4.28438 0.375 4.3375L2.14062 5L2.80312 6.76562C2.85625 6.90625 2.99062 7 3.14062 7C3.29063 7 3.425 6.90625 3.47813 6.76562L4.14062 5L5.90625 4.3375C6.04688 4.28438 6.14062 4.15 6.14062 4C6.14062 3.85 6.04688 3.71562 5.90625 3.6625L4.14062 3L3.47813 1.23438C3.425 1.09375 3.29063 1 3.14062 1C2.99062 1 2.85625 1.09375 2.80312 1.23438L2.14062 3L0.375 3.6625ZM11.375 11.6625C11.2344 11.7156 11.1406 11.85 11.1406 12C11.1406 12.15 11.2344 12.2844 11.375 12.3375L13.1406 13L13.8031 14.7656C13.8563 14.9062 13.9906 15 14.1406 15C14.2906 15 14.425 14.9062 14.4781 14.7656L15.1406 13L16.9062 12.3375C17.0469 12.2844 17.1406 12.15 17.1406 12C17.1406 11.85 17.0469 11.7156 16.9062 11.6625L15.1406 11L14.4781 9.23438C14.425 9.09375 14.2906 9 14.1406 9C13.9906 9 13.8563 9.09375 13.8031 9.23438L13.1406 11L11.375 11.6625Z" fill="white"/>
</g>
<defs>
<clipPath id="clip0_7_2039">
<path d="M0.140625 0H18.1406V16H0.140625V0Z" fill="white"/>
</clipPath>
</defs>
</svg>
