<svg width="33" height="32" viewBox="0 0 33 32" fill="none" xmlns="http://www.w3.org/2000/svg">
<path fill-rule="evenodd" clip-rule="evenodd" d="M8.711 11.5361C8.94021 11.3156 9.2476 11.1951 9.56562 11.2011C9.88364 11.2071 10.1863 11.3391 10.407 11.5681L16.343 17.8689L22.279 11.5681C22.3869 11.4491 22.5176 11.3531 22.6633 11.2855C22.809 11.218 22.9668 11.1804 23.1273 11.175C23.2878 11.1696 23.4478 11.1964 23.5977 11.254C23.7476 11.3115 23.8845 11.3985 24.0002 11.5099C24.1159 11.6213 24.208 11.7548 24.2712 11.9025C24.3343 12.0501 24.3672 12.209 24.3678 12.3696C24.3684 12.5302 24.3368 12.6893 24.2749 12.8374C24.2129 12.9856 24.1218 13.1198 24.007 13.2321L17.207 20.4321C17.0951 20.5482 16.9608 20.6406 16.8124 20.7037C16.6639 20.7668 16.5043 20.7993 16.343 20.7993C16.1817 20.7993 16.022 20.7668 15.8736 20.7037C15.7251 20.6406 15.5909 20.5482 15.479 20.4321L8.679 13.2321C8.45847 13.0029 8.33796 12.6955 8.34396 12.3775C8.34996 12.0594 8.48198 11.7568 8.711 11.5361Z" fill="#696969"/>
</svg>
