<svg width="31" height="25" viewBox="0 0 31 25" fill="none" xmlns="http://www.w3.org/2000/svg">
<g clip-path="url(#clip0_5_943)">
<path d="M7.14062 23.25C3.41406 23.25 0.390625 20.2266 0.390625 16.5C0.390625 13.5562 2.275 11.0531 4.9 10.1297C4.89531 10.0031 4.89062 9.87656 4.89062 9.75C4.89062 5.60625 8.24687 2.25 12.3906 2.25C15.1703 2.25 17.5938 3.75937 18.8922 6.00937C19.6047 5.53125 20.4672 5.25 21.3906 5.25C23.875 5.25 25.8906 7.26562 25.8906 9.75C25.8906 10.3219 25.7828 10.8656 25.5906 11.3719C28.3281 11.925 30.3906 14.3484 30.3906 17.25C30.3906 20.5641 27.7047 23.25 24.3906 23.25H7.14062ZM10.8438 13.0781C10.4031 13.5188 10.4031 14.2312 10.8438 14.6672C11.2844 15.1031 11.9969 15.1078 12.4328 14.6672L14.2609 12.8391V19.125C14.2609 19.7484 14.7625 20.25 15.3859 20.25C16.0094 20.25 16.5109 19.7484 16.5109 19.125V12.8391L18.3391 14.6672C18.7797 15.1078 19.4922 15.1078 19.9281 14.6672C20.3641 14.2266 20.3687 13.5141 19.9281 13.0781L16.1781 9.32812C15.7375 8.8875 15.025 8.8875 14.5891 9.32812L10.8391 13.0781H10.8438Z" fill="#A3A3A3"/>
</g>
<defs>
<clipPath id="clip0_5_943">
<path d="M0.390625 0.75H30.3906V24.75H0.390625V0.75Z" fill="white"/>
</clipPath>
</defs>
</svg>
